<svg version="1.1" xmlns="http://www.w3.org/2000/svg" xmlns:xlink="http://www.w3.org/1999/xlink" width="193.26133" height="309.35105" viewBox="0,0,193.26133,309.35105"><g transform="translate(-38.36933,-85.32447)"><g data-paper-data="{&quot;isPaintingLayer&quot;:true}" fill-rule="nonzero" stroke="#000000" stroke-linecap="butt" stroke-linejoin="miter" stroke-miterlimit="10" stroke-dasharray="" stroke-dashoffset="0" style="mix-blend-mode: normal"><path d="M40.11934,392.92553v-305.85105h189.76133v305.85105z" fill="#ffffff" stroke-width="3.5"/><path d="M220.58527,111.79519c0,10.54116 -3.22244,9.56123 -22.64349,9.56123c-19.42105,0 -24.03476,0.97993 -24.03476,-9.56123c0,-10.54116 3.91807,-10.0035 23.33912,-10.0035c19.42105,0 23.33912,-0.53766 23.33912,10.0035z" fill="#ffffff" stroke-width="3.5"/><path d="M174.00638,112.14516c0,-4.67536 4.31337,-8.4655 9.63419,-8.4655c5.32081,0 9.63419,3.79013 9.63419,8.4655c0,4.67536 -4.31337,8.4655 -9.63419,8.4655c-5.32081,0 -9.63419,-3.79013 -9.63419,-8.4655z" fill="#ffffff" stroke-width="3.5"/><text transform="translate(50.68819,107.40517) scale(0.43427,0.37181)" font-size="40" xml:space="preserve" fill="#000000" fill-rule="nonzero" stroke="#000000" stroke-width="1" stroke-linecap="butt" stroke-linejoin="miter" stroke-miterlimit="10" stroke-dasharray="" stroke-dashoffset="0" font-family="&quot;Comic Sans MS&quot;, Sans Serif" font-weight="normal" text-anchor="start" style="mix-blend-mode: normal"><tspan x="0" dy="0">реферальная</tspan><tspan x="0" dy="46.15px">система</tspan></text><text transform="translate(52.64514,162.04198) scale(0.5688,0.52293)" font-size="40" xml:space="preserve" fill="#000000" fill-rule="nonzero" stroke="#000000" stroke-width="1" stroke-linecap="butt" stroke-linejoin="miter" stroke-miterlimit="10" stroke-dasharray="" stroke-dashoffset="0" font-family="&quot;Comic Sans MS&quot;, Sans Serif" font-weight="normal" text-anchor="start" style="mix-blend-mode: normal"><tspan x="0" dy="0">сайт</tspan></text><path d="M217.10517,156.9126c0,10.54116 -3.22243,9.56124 -22.64348,9.56124c-19.42105,0 -24.03476,0.97993 -24.03476,-9.56124c0,-10.54117 3.91807,-10.0035 23.33912,-10.0035c19.42105,0 23.33912,-0.53767 23.33912,10.0035z" fill="#ffffff" stroke-width="3.5"/><path d="M170.52628,157.26258c0,-4.67536 4.31337,-8.46549 9.63419,-8.46549c5.32082,0 9.63419,3.79013 9.63419,8.46549c0,4.67537 -4.31337,8.4655 -9.63419,8.4655c-5.32082,0 -9.63419,-3.79013 -9.63419,-8.4655z" fill="#ffffff" stroke-width="3.5"/></g></g></svg>